<?xml version="1.0" encoding="UTF-8" standalone="no"?>
<!-- Created with Inkscape (http://www.inkscape.org/) -->

<svg
   width="143.32428mm"
   height="26.610203mm"
   viewBox="0 0 143.32428 26.610203"
   version="1.1"
   id="svg1"
   xml:space="preserve"
   xmlns="http://www.w3.org/2000/svg"
   xmlns:svg="http://www.w3.org/2000/svg"><defs
     id="defs1" /><g
     id="layer1"
     transform="translate(-37.456046,-151.75994)"
     style="fill:#ffffff;fill-opacity:1"><path
       style="fill:#ffffff;fill-opacity:1;stroke-width:0.549479"
       d="m 46.970037,178.02229 c -4.557129,-1.19637 -8.293264,-5.11373 -9.272244,-9.72197 -0.420994,-1.9817 -0.271571,-5.97755 0.288705,-7.72047 0.588091,-1.82946 1.680304,-3.56356 3.227264,-5.1239 1.55753,-1.571 3.284176,-2.64874 5.232563,-3.26608 l 1.356909,-0.42993 h 61.351676 61.35166 l 1.35691,0.42993 c 1.94839,0.61734 3.67504,1.69508 5.23257,3.26608 1.57843,1.59208 2.64852,3.3088 3.25434,5.22081 0.36716,1.1588 0.42993,1.7956 0.42993,4.3615 0,2.56589 -0.0628,3.2027 -0.42993,4.36149 -1.20721,3.81008 -4.52188,7.16261 -8.38998,8.48581 l -1.25999,0.43102 -61.15782,0.0386 c -59.708627,0.0376 -61.191357,0.0297 -62.572563,-0.33285 z m 122.774023,-3.11423 c 2.61645,-0.4779 5.42324,-2.51109 6.65384,-4.81996 1.50033,-2.81488 1.56805,-6.74351 0.16725,-9.7021 -0.73168,-1.54536 -2.71064,-3.59813 -4.19284,-4.34921 -2.24426,-1.13727 1.6239,-1.07169 -63.2174,-1.07169 -64.841309,0 -60.973143,-0.0656 -63.217415,1.07169 -1.506433,0.76336 -3.542871,2.8768 -4.228043,4.38792 -1.36293,3.00588 -1.281793,6.87866 0.202452,9.66339 1.209134,2.26857 3.992174,4.32678 6.498852,4.80627 1.410722,0.26985 119.857704,0.28321 121.333304,0.0137 z m -75.902843,-3.58733 c -1.08183,-0.46729 -2.10818,-1.5996 -2.42893,-2.67969 -0.39894,-1.34338 -0.35347,-2.18997 0.17788,-3.31202 1.1134,-2.35116 3.38822,-3.34981 5.74024,-2.51997 1.00671,0.35519 0.96922,0.35519 0.96922,0 0,-0.23907 0.34461,-0.29076 1.938453,-0.29076 h 1.93844 v 4.45841 4.45841 h -1.92229 c -1.166633,0 -1.948883,-0.0798 -1.989933,-0.20293 -0.0437,-0.13114 -0.32155,-0.0968 -0.78531,0.0969 -0.90606,0.37858 -2.75177,0.37433 -3.63777,-0.008 z m 3.66803,-1.33168 c 0.68525,-0.35436 0.78445,-0.72918 0.78774,-2.97663 0.003,-2.39721 -0.27673,-2.93479 -1.53284,-2.94041 -1.21754,-0.005 -1.37256,0.33233 -1.36921,2.9832 0.003,2.44964 0.0431,2.62663 0.67549,2.9852 0.51878,0.29419 0.78927,0.28453 1.43882,-0.0513 z m 28.752723,1.23197 c -1.57968,-0.78193 -2.37491,-2.15523 -2.37491,-4.10128 0,-1.03856 0.0967,-1.38808 0.63123,-2.28267 1.18439,-1.98203 3.53996,-2.84896 5.50738,-2.02693 0.62569,0.26144 0.72137,0.26062 0.91769,-0.008 0.17655,-0.24145 0.57668,-0.28878 2.05753,-0.2434 l 1.83837,0.0564 0.0521,4.40995 0.0521,4.40995 h -2.039 c -1.15702,0 -2.03901,-0.0796 -2.03901,-0.18396 0,-0.10117 -0.3025,-0.0575 -0.67222,0.0969 -1.01486,0.42403 -2.94386,0.36168 -3.93126,-0.12706 z m 4.09272,-1.35073 c 0.5026,-0.39534 0.51076,-0.44004 0.51076,-2.79974 0,-2.25828 -0.0251,-2.41558 -0.43082,-2.69975 -0.60511,-0.42384 -1.62118,-0.38205 -2.08915,0.0859 -0.34098,0.34098 -0.38769,0.64615 -0.38769,2.53272 0,2.26352 0.14807,2.81003 0.83651,3.08741 0.6695,0.26976 1.01261,0.22433 1.56039,-0.20656 z m 20.08902,1.45044 c -1.60084,-0.69148 -2.71701,-2.47391 -2.71193,-4.33075 0.003,-0.91428 0.75964,-2.47818 1.57359,-3.25034 1.3,-1.23326 3.17721,-1.5632 4.77291,-0.83889 l 0.82385,0.37396 v -2.41358 -2.41357 h 1.93843 1.93845 v 6.49378 6.49377 h -1.92229 c -1.16663,0 -1.94888,-0.0798 -1.98994,-0.20293 -0.0437,-0.13114 -0.32154,-0.0968 -0.7853,0.0969 -0.90606,0.37858 -2.75177,0.37433 -3.63777,-0.008 z m 3.66803,-1.33168 c 0.68997,-0.3568 0.78447,-0.72506 0.78773,-3.06962 0.002,-1.75934 -0.0323,-1.93374 -0.47315,-2.37459 -0.54881,-0.54882 -1.36466,-0.61978 -2.00104,-0.17404 -0.40545,0.28399 -0.43064,0.44091 -0.42785,2.66535 0.003,2.46894 0.0428,2.64549 0.67549,3.00426 0.51877,0.29419 0.78927,0.28453 1.43882,-0.0513 z M 48.094,165.2321 v -6.203 l 1.986903,0.005 1.986902,0.005 2.519974,4.14099 2.519973,4.14098 0.05224,-4.14641 0.05224,-4.14641 h 1.93466 1.934661 v 6.20298 6.20301 H 59.158254 57.23495 l -2.583572,-4.20042 -2.583572,-4.20041 -0.05224,4.20041 -0.05224,4.20042 h -1.934661 -1.934661 z m 13.956778,1.93844 v -4.26457 h 2.035364 2.035363 v 4.26457 4.26457 h -2.035363 -2.035364 z m 4.846104,0 v -4.26457 h 2.035363 c 1.679983,0 2.035364,0.0508 2.035364,0.29077 0,0.36318 -0.07721,0.37749 1.050533,-0.19466 2.213059,-1.12275 4.824997,-0.2955 5.945608,1.88307 0.315741,0.61384 0.369936,1.1463 0.369936,3.63458 v 2.91538 h -1.938442 -1.938441 v -3.01949 -3.01949 l -0.566621,-0.56662 c -0.722357,-0.72237 -1.518338,-0.74453 -2.326168,-0.0648 l -0.596405,0.50184 v 3.08427 3.08427 h -2.035364 -2.035363 z m 12.21218,-2.2292 v -6.49378 h 1.938442 1.938442 v 3.58611 3.58612 h 1.233844 c 1.707382,0 2.255349,-0.42729 2.255349,-1.75866 v -0.95516 h 2.035368 c 1.98292,0 2.03524,0.0112 2.03062,0.43615 -0.01,0.90226 -0.42193,2.19527 -0.89914,2.82092 -0.49416,0.64788 -0.49417,0.64796 -0.11015,1.07002 0.65455,0.71939 0.84888,1.27848 0.96137,2.76591 l 0.10862,1.43614 h -2.06334 -2.063348 v -1.24413 c 0,-0.68427 -0.05418,-1.38533 -0.120411,-1.55792 -0.197899,-0.51571 -1.148616,-0.88098 -2.293014,-0.88098 h -1.075768 v 1.84151 1.84152 h -1.938442 -1.938442 z m 23.842838,2.2292 v -4.26457 h 1.93843 c 1.85569,0 1.93845,0.0179 1.93845,0.41773 0,0.38882 0.024,0.39604 0.34632,0.10432 1.12691,-1.01984 3.26343,-1.19811 4.85482,-0.40508 1.92727,0.96039 2.35609,2.02326 2.3577,5.84374 l 0.001,2.56843 h -2.03537 -2.03536 v -2.98873 c 0,-1.64379 -0.0542,-3.12993 -0.12041,-3.30251 -0.0662,-0.17258 -0.38213,-0.44913 -0.70201,-0.61455 -0.77074,-0.39856 -1.75938,-0.20466 -2.27069,0.44537 -0.35985,0.45747 -0.39609,0.776 -0.39609,3.48198 v 2.97844 h -1.93845 -1.93844 z m 14.15062,0 v -4.26457 h -0.96923 -0.96922 v -0.67845 -0.67845 h 0.95809 0.95806 l 0.0596,-0.82385 0.0596,-0.82383 h 1.93845 1.93843 l 0.0591,0.81408 0.0591,0.81407 1.007,0.0583 c 0.98048,0.0567 1.00862,0.0748 1.06776,0.68821 l 0.0607,0.62999 h -1.07843 -1.07842 v 4.26457 4.26457 h -2.03536 -2.03537 z m 18.60903,0 v -4.26457 H 137.65 c 1.59382,0 1.93843,0.0517 1.93843,0.29077 0,0.36318 -0.0772,0.37749 1.05054,-0.19466 1.72211,-0.87368 3.88927,-0.54335 5.22808,0.79692 0.95324,0.95426 1.08746,1.53713 1.08746,4.72223 v 2.91388 h -1.93844 -1.93844 l -0.006,-3.05304 c -0.005,-2.09381 -0.0804,-3.14968 -0.24231,-3.3606 -0.6986,-0.90991 -2.14696,-0.93373 -2.84463,-0.0468 -0.35986,0.45749 -0.39609,0.77601 -0.39609,3.48199 v 2.97844 h -1.93844 -1.93844 z m 27.27439,3.98498 c -2.09442,-0.74709 -3.28252,-2.17208 -3.38178,-4.05603 -0.0531,-1.00893 0.0191,-1.33566 0.47726,-2.15815 0.91788,-1.6478 2.73247,-2.61363 4.91453,-2.61582 3.73904,-0.004 6.35892,3.40311 4.86655,6.32839 -0.52387,1.02686 -1.77478,2.09575 -2.90225,2.47992 -1.07695,0.36695 -2.97733,0.37733 -3.97431,0.0217 z m 2.9653,-1.27116 c 0.34767,-0.34767 0.38769,-0.64614 0.38769,-2.89181 0,-1.37726 -0.0567,-2.6518 -0.12594,-2.83229 -0.19257,-0.50186 -1.20108,-0.85685 -1.82064,-0.64087 -0.78318,0.27302 -0.96109,0.90984 -0.96109,3.44029 0,2.02409 0.0468,2.35034 0.40176,2.80162 0.50341,0.63998 1.54102,0.70026 2.11822,0.12306 z M 62.186558,161.23254 c -0.07468,-0.0747 -0.13578,-0.68824 -0.13578,-1.36345 v -1.22769 h 2.04422 2.044221 l -0.05732,1.30845 -0.05732,1.30845 -1.851122,0.055 c -1.018118,0.0303 -1.912224,-0.006 -1.986903,-0.0808 z"
       id="path1" /></g></svg>
